HIERARCHY
ROOT Hips
{
	OFFSET 0.00000 0.00000 0.00000
	CHANNELS 6 Xposition Yposition Zposition Zrotation Yrotation Xrotation 
	JOINT LHipJoint
	{
		OFFSET 0 0 0
		CHANNELS 3 Zrotation Yrotation Xrotation
		JOINT LeftHip
		{
			OFFSET 1.82298 -1.58346 0.87084
			CHANNELS 3 Zrotation Yrotation Xrotation
			JOINT LeftKnee
			{
				OFFSET 2.43790 -6.69809 0.00000
				CHANNELS 3 Zrotation Yrotation Xrotation
				JOINT LeftAnkle
				{
					OFFSET 2.59288 -7.12389 0.00000
					CHANNELS 3 Zrotation Yrotation Xrotation
					JOINT LeftToe
					{
						OFFSET 0.14552 -0.39981 2.13160
						CHANNELS 3 Zrotation Yrotation Xrotation
						End Site
						{
							OFFSET 0.00000 -0.00000 1.09427
						}
					}
				}
			}
		}
	}
	JOINT RHipJoint
	{
		OFFSET 0 0 0
		CHANNELS 3 Zrotation Yrotation Xrotation
		JOINT RightHip
		{
			OFFSET -1.77229 -1.58346 0.87084
			CHANNELS 3 Zrotation Yrotation Xrotation
			JOINT RightKnee
			{
				OFFSET -2.50703 -6.88801 0.00000
				CHANNELS 3 Zrotation Yrotation Xrotation
				JOINT RightAnkle
				{
					OFFSET -2.61620 -7.18796 0.00000
					CHANNELS 3 Zrotation Yrotation Xrotation
					JOINT RightToe
					{
						OFFSET -0.15190 -0.41735 2.15974
						CHANNELS 3 Zrotation Yrotation Xrotation
						End Site
						{
							OFFSET -0.00000 -0.00000 1.10919
						}
					}
				}
			}
		}
	}
	JOINT lowerback
	{
		OFFSET 0 0 0
		CHANNELS 3 Zrotation Yrotation Xrotation
		JOINT Chest
		{
			OFFSET -0.03602 2.12423 -0.30249
			CHANNELS 3 Zrotation Yrotation Xrotation
			JOINT Chest2
			{
				OFFSET 0.02717 2.10043 0.12912
				CHANNELS 3 Zrotation Yrotation Xrotation
				JOINT lowerneck
				{
					OFFSET 0 0 0
					CHANNELS 3 Zrotation Yrotation Xrotation
					JOINT Neck
					{
						OFFSET -0.06371 1.88656 0.11602
						CHANNELS 3 Zrotation Yrotation Xrotation
						JOINT Head
						{
							OFFSET 0.08208 1.87759 -0.11505
							CHANNELS 3 Zrotation Yrotation Xrotation
							End Site
							{
								OFFSET 0.03382 1.93090 -0.05483
							}
						}
					}
				}
				JOINT LeftCollar
				{
					OFFSET 0 0 0
					CHANNELS 3 Zrotation Yrotation Xrotation
					JOINT LeftShoulder
					{
						OFFSET 3.30903 1.40357 0.20156
CHANNELS 3 Zrotation Xrotation Yrotation
						JOINT LeftElbow
						{
OFFSET 0 -5.433010 0.000000
CHANNELS 3 Zrotation Xrotation Yrotation
							JOINT LeftWrist
							{
OFFSET 0 -3.159360 0.000000
CHANNELS 3 Zrotation Xrotation Yrotation
								JOINT lhand
								{
									OFFSET 0 0 0
CHANNELS 3 Zrotation Xrotation Yrotation
									JOINT LFingers
									{
OFFSET 0 -0.712830 0.000000
CHANNELS 3 Zrotation Xrotation Yrotation
										End Site
										{
OFFSET 0 -0.574700 0.000000
										}
									}
								}
								JOINT LThumb
								{
OFFSET 0 0.000000 0.000000
CHANNELS 3 Zrotation Xrotation Yrotation
									End Site
									{
OFFSET 0 -0.583470 0.583470
									}
								}
							}
						}
					}
				}
				JOINT RightCollar
				{
					OFFSET 0 0 0
					CHANNELS 3 Zrotation Yrotation Xrotation
					JOINT RightShoulder
					{
						OFFSET -3.12947 1.60037 -0.00464
CHANNELS 3 Zrotation Xrotation Yrotation
						JOINT RightElbow
						{
OFFSET 0 -5.341940 0.000000
CHANNELS 3 Zrotation Xrotation Yrotation
							JOINT RightWrist
							{
OFFSET 0 -3.193510 0.000000
CHANNELS 3 Zrotation Xrotation Yrotation
								JOINT rhand
								{
									OFFSET 0 0 0
CHANNELS 3 Zrotation Xrotation Yrotation
									JOINT RFingers
									{
OFFSET 0 -0.743860 0.000000
CHANNELS 3 Zrotation Xrotation Yrotation
										End Site
										{
OFFSET 0 -0.599720 0.000000
										}
									}
								}
								JOINT RThumb
								{
OFFSET 0 0.000000 0.000000
CHANNELS 3 Zrotation Xrotation Yrotation
									End Site
									{
OFFSET 0 -0.608880 0.608880
									}
								}
							}
						}
					}
				}
			}
		}
	}
}
MOTION
Frames: 7
Frame Time: .0083333
-1.0164 14.3368 3.3381 -12.1048 -27.0030 8.1706 0.0000 0.0000 0.0000 7.9071 1.3872 -59.1842 11.4065 18.1283 64.0947 0.0908 -3.6257 -5.5585 0.2793 -3.3992 -9.3921 0.0000 0.0000 0.0000 14.2746 -8.6755 -8.0962 -9.1874 -16.9268 56.7360 -2.3646 -11.7242 -35.1106 -1.2968 7.2148 -20.3534 4.9020 4.3335 13.4743 2.1408 6.7378 -1.0078 -1.8157 3.0841 -8.3312 -2.4265 1.3141 -1.7516 4.0299 1.6786 3.7126 1.7074 0.8740 1.4000 -0.0000 0.0000 0.0000 14.6825 -7.9777 -42.1534 80.2601 -59.6385 51.5752 33.9115 -10.7387 -15.4439 0.0 0.0 0.0 -7.1250 0.0 0.0 6.1258 48.2963 -0.4999 -0.0000 0.0000 0.0000 -18.0699 19.9969 46.8932 -103.3682 -59.3139 -71.5505 -16.1247 19.2007 32.583 0.0 0.0 0.0 7.1250 0.0 -0.0 19.5280 62.5683 -8.5072
-1.0132 14.3627 3.3942 -12.4027 -26.7090 8.3765 0.0000 0.0000 0.0000 7.8591 1.7047 -59.4245 11.4442 18.1457 64.2160 0.0918 -3.6643 -5.5924 0.2613 -3.2886 -9.0834 0.0000 0.0000 0.0000 14.7218 -8.6377 -7.5557 -8.8726 -16.7251 55.6486 -2.4805 -11.3222 -35.4651 -1.1560 6.8263 -19.2018 5.1751 4.2687 13.2981 2.2343 6.6960 -1.0841 -1.8464 3.0546 -8.2978 -2.3794 1.3347 -1.6461 4.1130 1.7010 3.6707 1.7242 0.8860 1.3673 -0.0000 0.0000 0.0000 14.7329 -8.841 -42.1177 81.9330 -59.7527 53.0196 34.4738 -11.8092 -15.6706 0.0 0.0 0.0 -7.1250 0.0 0.0 6.6789 48.658 -0.6051 -0.0000 0.0000 0.0000 -18.3407 20.1364 47.2481 -103.8692 -59.2606 -71.9813 -16.2348 18.9489 32.514 0.0 0.0 0.0 7.1250 0.0 -0.0 19.3465 62.5321 -8.4085
-1.0139 14.3852 3.4441 -12.6309 -26.4986 8.5892 0.0000 0.0000 0.0000 7.6476 2.1771 -59.7718 11.4899 18.1666 64.3625 0.0953 -3.5539 -5.6590 0.2092 -2.9451 -8.1260 0.0000 0.0000 0.0000 15.1126 -8.5161 -7.0152 -8.5457 -16.5063 54.5054 -2.4301 -11.7393 -35.4741 -1.1464 6.7989 -19.1211 5.3293 4.2563 13.1343 2.3274 6.7069 -1.1849 -1.8248 3.0541 -8.3082 -2.4237 1.3357 -1.5355 4.2243 1.6996 3.6141 1.7657 0.8851 1.3295 0.0000 0.0000 0.0000 14.6697 -9.6228 -41.9389 83.7066 -59.8498 54.5525 34.5566 -12.2465 -16.7376 0.0 0.0 0.0 -7.1250 0.0 0.0 6.7224 49.9206 -0.8187 0.0000 0.0000 0.0000 -18.6481 20.3181 47.5372 -104.4345 -59.1979 -72.467 -16.4681 18.8094 32.5592 0.0 0.0 0.0 7.1250 0.0 -0.0 19.1285 62.6341 -8.3559
-1.0156 14.4142 3.5190 -12.7195 -26.7361 8.7164 0.0000 0.0000 0.0000 7.0848 3.1009 -59.9805 11.5464 18.1923 64.5436 0.0994 -3.1972 -5.6975 0.1549 -2.5360 -6.9894 0.0000 0.0000 0.0000 15.1539 -8.1488 -6.2167 -8.2057 -16.2684 53.3001 -2.3317 -12.2799 -35.3165 -1.2089 6.9752 -19.6420 5.4574 4.3945 12.6627 2.3171 6.8744 -1.1810 -1.8929 3.1427 -8.0089 -2.4628 1.3152 -1.4493 4.3556 1.6690 3.5592 1.8127 0.8702 1.2975 0.0000 -0.0000 0.0000 14.7415 -10.5699 -41.9118 85.0787 -59.9083 55.7393 34.8645 -12.8981 -16.9899 0.0 0.0 0.0 -7.1250 0.0 0.0 7.0281 50.273 -0.9174 0.0000 -0.0000 0.0000 -18.853 20.4467 47.7328 -104.8353 -59.1518 -72.8112 -16.8692 18.8965 32.6747 0.0 0.0 0.0 7.1250 0.0 -0.0 18.7849 62.8458 -8.2937
-1.0197 14.4347 3.5714 -12.7474 -26.6783 8.8720 0.0000 0.0000 0.0000 6.4098 3.8280 -60.4989 11.6047 18.2185 64.7304 0.1012 -2.5108 -5.6646 0.0874 -1.9071 -5.2490 0.0000 0.0000 0.0000 15.2728 -7.8886 -5.4363 -7.8742 -16.0260 52.1085 -2.2919 -12.5264 -35.2757 -1.2867 7.1879 -20.2731 5.4737 4.4186 12.3676 2.3266 6.8954 -1.2889 -1.8738 3.1545 -7.9558 -2.4894 1.3033 -1.2591 4.4401 1.6504 3.4759 1.8410 0.8593 1.2382 0.0000 -0.0000 0.0000 14.7877 -11.2664 -41.7627 86.6349 -59.9572 57.0862 34.9983 -13.223 -17.3564 0.0 0.0 0.0 -7.1250 0.0 0.0 7.1516 50.727 -1.0137 0.0000 -0.0000 0.0000 -19.055 20.5714 47.9764 -105.0934 -59.1215 -73.0327 -17.0712 18.8087 32.5643 0.0 0.0 0.0 7.1250 0.0 -0.0 18.4646 62.7943 -8.1248
-1.0246 14.4555 3.6119 -12.7247 -26.6310 9.0759 0.0000 0.0000 0.0000 5.6105 4.6064 -61.1611 11.6550 18.2410 64.8911 0.0972 -1.7266 -5.5403 0.0410 -1.3072 -3.5944 0.0000 0.0000 0.0000 15.3760 -7.5563 -4.7108 -7.5439 -15.7733 50.9026 -2.2493 -12.6673 -35.1455 -1.4105 7.5116 -21.2403 5.4173 4.4467 12.0524 2.3077 6.9041 -1.3536 -1.8387 3.1656 -7.8495 -2.4928 1.2919 -1.2742 4.5081 1.6365 3.3740 1.8624 0.8529 1.2088 0.0000 0.0000 0.0000 14.8871 -12.135 -41.5063 88.0000 -59.9849 58.268 35.1356 -13.3662 -17.391 0.0 0.0 0.0 -7.1250 0.0 0.0 7.2930 50.7941 -1.046 0.0000 0.0000 0.0000 -19.2694 20.62 48.2091 -105.5486 -59.0665 -73.4233 -18.553 18.765 31.1292 0.0 0.0 0.0 7.1250 0.0 -0.0 15.6553 61.8032 -6.4877
-1.0356 14.4685 3.6623 -12.6129 -26.5380 9.1995 0.0000 0.0000 0.0000 4.7465 5.3035 -61.7703 11.7150 18.2675 65.0825 0.0951 -0.8619 -5.5822 0.0123 -0.7169 -1.9700 0.0000 0.0000 0.0000 15.3797 -7.2499 -3.7839 -7.2117 -15.5076 49.6706 -2.2394 -12.7881 -35.1785 -1.6030 7.9849 -22.6682 5.3262 4.4683 11.7135 2.2661 6.8990 -1.4581 -1.8059 3.1695 -7.7742 -2.3919 1.1957 -1.1664 4.4090 1.5100 3.2765 1.8083 0.7879 1.1647 -0.0000 -0.0000 0.0000 14.9685 -12.7889 -41.3333 89.4550 -59.9989 59.528 35.2909 -13.2922 -17.5204 0.0 0.0 0.0 -7.1250 0.0 0.0 7.4499 50.9758 -1.1021 -0.0000 -0.0000 0.0000 -19.4086 20.5527 48.3574 -105.5128 -59.0709 -73.3926 -18.0092 18.8755 32.5778 0.0 0.0 0.0 7.1250 0.0 -0.0 17.4278 63.0505 -7.7584
